<?xml version="1.0" encoding="utf-8"?>
<svg version="1.1" id="Layer_1" xmlns="http://www.w3.org/2000/svg" xmlns:xlink="http://www.w3.org/1999/xlink" x="0px" y="0px"
	 viewBox="0 0 32 32" style="enable-background:new 0 0 32 32;" xml:space="preserve">
<style type="text/css">
	.st0{fill:url(#SVGID_1_);}
	.st1{fill:#FFFFFF;}
</style>
<g>
	
		<linearGradient id="SVGID_1_" gradientUnits="userSpaceOnUse" x1="4.7156" y1="6.7156" x2="27.2844" y2="29.2844" gradientTransform="matrix(1 0 0 -1 0 34)">
		<stop  offset="0" style="stop-color:#FFD521"/>
		<stop  offset="5.510481e-02" style="stop-color:#FFD020"/>
		<stop  offset="0.1241" style="stop-color:#FEC01E"/>
		<stop  offset="0.2004" style="stop-color:#FCA71B"/>
		<stop  offset="0.2821" style="stop-color:#FA8316"/>
		<stop  offset="0.3681" style="stop-color:#F85510"/>
		<stop  offset="0.4563" style="stop-color:#F51E09"/>
		<stop  offset="0.5" style="stop-color:#F30005"/>
		<stop  offset="0.5035" style="stop-color:#F20007"/>
		<stop  offset="0.5966" style="stop-color:#E1003B"/>
		<stop  offset="0.6879" style="stop-color:#D30067"/>
		<stop  offset="0.7757" style="stop-color:#C70088"/>
		<stop  offset="0.8589" style="stop-color:#BF00A0"/>
		<stop  offset="0.9357" style="stop-color:#BB00AF"/>
		<stop  offset="1" style="stop-color:#B900B4"/>
	</linearGradient>
	<path class="st0" d="M16,32L16,32C7.2,32,0,24.8,0,16l0,0C0,7.2,7.2,0,16,0l0,0c8.8,0,16,7.1,16,16l0,0C32,24.8,24.8,32,16,32z"/>
	<g>
		<path class="st1" d="M16,9.6c2.1,0,2.3,0,3.2,0c0.8,0,1.2,0.2,1.5,0.3c0.4,0.1,0.6,0.3,0.9,0.6s0.4,0.5,0.6,0.9
			c0.1,0.3,0.2,0.7,0.3,1.5c0,0.8,0,1.1,0,3.2s0,2.3,0,3.2c0,0.8-0.2,1.2-0.3,1.5c-0.1,0.4-0.3,0.6-0.6,0.9
			c-0.3,0.3-0.5,0.4-0.9,0.6c-0.3,0.1-0.7,0.2-1.5,0.3c-0.8,0-1.1,0-3.2,0s-2.3,0-3.2,0c-0.8,0-1.2-0.2-1.5-0.3
			c-0.4-0.1-0.6-0.3-0.9-0.6c-0.3-0.3-0.4-0.5-0.6-0.9c-0.1-0.3-0.2-0.7-0.3-1.5c0-0.8,0-1.1,0-3.2s0-2.3,0-3.2
			c0-0.8,0.2-1.2,0.3-1.5c0.1-0.4,0.3-0.6,0.6-0.9c0.3-0.3,0.5-0.4,0.9-0.6c0.3-0.1,0.7-0.2,1.5-0.3C13.7,9.6,13.9,9.6,16,9.6
			 M16,8.1c-2.1,0-2.4,0-3.2,0c-0.8,0-1.4,0.2-1.9,0.4c-0.5,0.2-1,0.5-1.4,0.9C9,9.9,8.8,10.3,8.5,10.9c-0.2,0.5-0.3,1.1-0.4,1.9
			s0,1.1,0,3.2s0,2.4,0,3.2c0,0.8,0.2,1.4,0.4,1.9c0.2,0.5,0.5,1,0.9,1.4c0.4,0.4,0.9,0.7,1.4,0.9c0.5,0.2,1.1,0.3,1.9,0.4
			c0.8,0,1.1,0,3.2,0s2.4,0,3.2,0c0.8,0,1.4-0.2,1.9-0.4c0.5-0.2,1-0.5,1.4-0.9c0.4-0.4,0.7-0.9,0.9-1.4c0.2-0.5,0.3-1.1,0.4-1.9
			c0-0.8,0-1.1,0-3.2s0-2.4,0-3.2c0-0.8-0.2-1.4-0.4-1.9c-0.2-0.5-0.5-1-0.9-1.4c-0.4-0.4-0.9-0.7-1.4-0.9c-0.5-0.2-1.1-0.3-1.9-0.4
			C18.4,8.1,18.1,8.1,16,8.1L16,8.1z"/>
		<path class="st1" d="M16,12c-2.2,0-4,1.8-4,4s1.8,4,4,4s4-1.8,4-4S18.2,12,16,12z M16,18.6c-1.4,0-2.6-1.2-2.6-2.6
			s1.2-2.6,2.6-2.6s2.6,1.2,2.6,2.6S17.4,18.6,16,18.6z"/>
		<circle class="st1" cx="20.2" cy="11.8" r="0.9"/>
	</g>
</g>
</svg>
