<?xml version="1.0" encoding="UTF-8" standalone="no"?><!DOCTYPE svg PUBLIC "-//W3C//DTD SVG 1.1//EN" "http://www.w3.org/Graphics/SVG/1.1/DTD/svg11.dtd"><svg width="100%" height="100%" viewBox="0 0 651 651" version="1.1" xmlns="http://www.w3.org/2000/svg" xmlns:xlink="http://www.w3.org/1999/xlink" xml:space="preserve" xmlns:serif="http://www.serif.com/" style="fill-rule:evenodd;clip-rule:evenodd;stroke-linejoin:round;stroke-miterlimit:2;"><g><circle cx="325.308" cy="325.308" r="325.308" style="fill:#286ad6;"/><g><path d="M396.094,236.775c-30.246,0.835 -58.407,-3.784 -82.768,-12.598l-0.204,-0.014c-24.359,-8.612 -52.529,-13.227 -82.762,-12.611c-20.787,0.428 -40.122,3.578 -58.597,8.627l0.212,202.078c18.263,-5.061 37.796,-7.979 58.809,-8.615c30.021,-0.638 58.387,4.208 82.542,12.819l0.206,-0c24.373,8.606 52.528,13.236 82.772,12.6c30.259,-0.832 58.401,-6.718 82.55,-16.384l0,-202.288c-24.149,9.654 -52.514,15.752 -82.76,16.386" style="fill:#ea332d;"/><path d="M204.732,292.649l-0,15.753l29.413,0l-36.554,56.509l63.862,-0l-0,-15.751l-32.362,0l36.356,-56.511l-60.715,0Z" style="fill:#fff;"/><path d="M290.018,292.649l-19.533,0l-0,72.262l44.106,-0l-0,-16.813l-24.573,0l-0,-55.449Z" style="fill:#fff;"/><path d="M329.295,346.832c-5.658,-0 -9.87,4.43 -9.87,10.09c-0,5.462 4.212,10.088 9.87,10.088c5.662,0 10.077,-4.414 10.077,-10.088c-0,-5.458 -4.415,-10.09 -10.077,-10.09" style="fill:#fff;"/><path d="M365.426,292.649l-19.744,0l-0,72.262l44.104,-0l-0,-16.813l-24.36,0l0,-55.449Z" style="fill:#fff;"/><path d="M431.37,292.649l-14.261,40.544c-0.226,0.834 -1.058,3.985 -2.528,9.657c-1.276,-5.672 -2.09,-8.823 -2.314,-9.67l-14.495,-40.531l-21.02,0l30.465,72.262l14.699,-0l30.679,-72.262l-21.225,0Z" style="fill:#fff;"/></g></g></svg>